<svg height="512" viewBox="0 0 128 128" width="512" xmlns="http://www.w3.org/2000/svg"><g><path d="m64 123.25a1.751 1.751 0 0 1 -1.75-1.75v-9.916a1.75 1.75 0 0 1 3.5 0v9.916a1.751 1.751 0 0 1 -1.75 1.75z" fill="#f09418"/><path d="m69.419 23.834a1.752 1.752 0 0 1 -1.713-2.12 92.3 92.3 0 0 1 5.037-15.946 1.75 1.75 0 0 1 3.18 1.464c-2.8 6.081-4.776 15.131-4.8 15.222a1.75 1.75 0 0 1 -1.704 1.38z" fill="#ffd203"/><path d="m58.582 23.834a1.751 1.751 0 0 1 -1.709-1.38c-.019-.091-2-9.141-4.8-15.222a1.75 1.75 0 0 1 3.179-1.464 92.24 92.24 0 0 1 5.038 15.946 1.751 1.751 0 0 1 -1.712 2.12z" fill="#ffd203"/><path d="m81.25 76.4a77.71 77.71 0 0 1 -.99 12.5 56.885 56.885 0 0 1 -3.4 12.49c-3.16 7.67-7.75 12.5-12.86 12.5s-9.7-4.83-12.86-12.5a56.885 56.885 0 0 1 -3.4-12.49 79.346 79.346 0 0 1 0-24.99 56.418 56.418 0 0 1 3.41-12.5c3.15-7.67 7.74-12.49 12.85-12.49s9.7 4.82 12.85 12.49a56.418 56.418 0 0 1 3.41 12.5 77.584 77.584 0 0 1 .99 12.49z" fill="#ffd203"/><g fill="#f09418"><path d="m81.25 76.4h-34.5a77.584 77.584 0 0 1 .99-12.49h32.52a77.584 77.584 0 0 1 .99 12.49z"/><path d="m80.26 88.9a56.885 56.885 0 0 1 -3.4 12.49h-25.72a56.885 56.885 0 0 1 -3.4-12.49z"/><circle cx="64" cy="28.583" r="12"/></g><path d="m106.318 44.629c-15.591-10.014-42.193-8.156-42.193-8.156s3.7 18.892 17.854 30.853 29.068 15.864 35.05 9.532c6.019-6.369 8.84-19.672-10.711-32.229z" fill="#d8d8d8"/><path d="m102.267 56.271c-12.107-14.028-38.142-19.8-38.142-19.8s-1.814 19.166 8.361 34.652 23.368 23.463 30.9 19.09c7.581-4.396 14.062-16.351-1.119-33.942z" fill="#eaeaf0"/><path d="m88.77 54.542a1.74 1.74 0 0 1 -.927-.266 66.271 66.271 0 0 0 -6.543-3.565 1.75 1.75 0 1 1 1.509-3.157 69.71 69.71 0 0 1 6.891 3.755 1.75 1.75 0 0 1 -.93 3.233z" fill="#d8d8d8"/><path d="m21.682 44.629c15.591-10.014 42.193-8.156 42.193-8.156s-3.7 18.892-17.854 30.853-29.068 15.864-35.05 9.532c-6.019-6.369-8.84-19.672 10.711-32.229z" fill="#d8d8d8"/><path d="m25.733 56.271c12.107-14.028 38.142-19.8 38.142-19.8s1.814 19.166-8.361 34.652-23.368 23.463-30.9 19.09c-7.581-4.396-14.062-16.351 1.119-33.942z" fill="#eaeaf0"/></g></svg>